<?xml version="1.0" encoding="UTF-8"?>
<score-partwise version="3.1">
  <part-list><score-part id="P1"><part-name>St. Louis Blues</part-name></score-part></part-list>
  <part id="P1">
    <measure number="1">
      <attributes><divisions>4</divisions><key><fifths>1</fifths></key><time><beats>4</beats><beat-type>4</beat-type></time><staves>2</staves><clef number="1"><sign>G</sign><line>2</line></clef><clef number="2"><sign>F</sign><line>4</line></clef></attributes>
      <note><pitch><step>D</step><octave>5</octave></pitch><duration>4</duration><voice>1</voice><type>quarter</type><staff>1</staff></note>
      <note><pitch><step>D</step><octave>5</octave></pitch><duration>2</duration><voice>1</voice><type>eighth</type><staff>1</staff></note>
      <note><pitch><step>D</step><octave>5</octave></pitch><duration>2</duration><voice>1</voice><type>eighth</type><staff>1</staff></note>
      <note><pitch><step>B</step><alter>-1</alter><octave>4</octave></pitch><duration>4</duration><voice>1</voice><type>quarter</type><accidental>flat</accidental><staff>1</staff></note>
      <note><pitch><step>B</step><octave>4</octave></pitch><duration>4</duration><voice>1</voice><type>quarter</type><staff>1</staff></note>
      <backup><duration>16</duration></backup>
      <note><pitch><step>G</step><octave>2</octave></pitch><duration>4</duration><voice>2</voice><type>quarter</type><staff>2</staff></note>
      <note><pitch><step>B</step><octave>3</octave></pitch><duration>4</duration><voice>2</voice><type>quarter</type><staff>2</staff></note>
      <note><chord/><pitch><step>D</step><octave>4</octave></pitch><duration>4</duration><voice>2</voice><type>quarter</type><staff>2</staff></note>
      <note><chord/><pitch><step>F</step><octave>4</octave></pitch><duration>4</duration><voice>2</voice><type>quarter</type><accidental>natural</accidental><staff>2</staff></note>
      <note><pitch><step>G</step><octave>2</octave></pitch><duration>4</duration><voice>2</voice><type>quarter</type><staff>2</staff></note>
      <note><pitch><step>B</step><octave>3</octave></pitch><duration>4</duration><voice>2</voice><type>quarter</type><staff>2</staff></note>
      <note><chord/><pitch><step>D</step><octave>4</octave></pitch><duration>4</duration><voice>2</voice><type>quarter</type><staff>2</staff></note>
      <note><chord/><pitch><step>F</step><octave>4</octave></pitch><duration>4</duration><voice>2</voice><type>quarter</type><accidental>natural</accidental><staff>2</staff></note>
    </measure>
    <measure number="2">
      <note><pitch><step>D</step><octave>5</octave></pitch><duration>6</duration><voice>1</voice><type>quarter</type><dot/><staff>1</staff></note>
      <note><pitch><step>B</step><octave>4</octave></pitch><duration>2</duration><voice>1</voice><type>eighth</type><staff>1</staff></note>
      <note><pitch><step>G</step><octave>4</octave></pitch><duration>4</duration><voice>1</voice><type>quarter</type><staff>1</staff></note>
      <note><rest/><duration>4</duration><voice>1</voice><type>quarter</type><staff>1</staff></note>
      <backup><duration>16</duration></backup>
      <note><pitch><step>G</step><octave>2</octave></pitch><duration>4</duration><voice>2</voice><type>quarter</type><staff>2</staff></note>
      <note><pitch><step>B</step><octave>3</octave></pitch><duration>4</duration><voice>2</voice><type>quarter</type><staff>2</staff></note>
      <note><chord/><pitch><step>D</step><octave>4</octave></pitch><duration>4</duration><voice>2</voice><type>quarter</type><staff>2</staff></note>
      <note><chord/><pitch><step>F</step><octave>4</octave></pitch><duration>4</duration><voice>2</voice><type>quarter</type><accidental>natural</accidental><staff>2</staff></note>
      <note><pitch><step>G</step><octave>2</octave></pitch><duration>4</duration><voice>2</voice><type>quarter</type><staff>2</staff></note>
      <note><pitch><step>B</step><octave>3</octave></pitch><duration>4</duration><voice>2</voice><type>quarter</type><staff>2</staff></note>
      <note><chord/><pitch><step>D</step><octave>4</octave></pitch><duration>4</duration><voice>2</voice><type>quarter</type><staff>2</staff></note>
      <note><chord/><pitch><step>F</step><octave>4</octave></pitch><duration>4</duration><voice>2</voice><type>quarter</type><accidental>natural</accidental><staff>2</staff></note>
    </measure>
    <measure number="3">
      <note><pitch><step>G</step><octave>4</octave></pitch><duration>4</duration><voice>1</voice><type>quarter</type><staff>1</staff></note>
      <note><pitch><step>B</step><octave>4</octave></pitch><duration>4</duration><voice>1</voice><type>quarter</type><staff>1</staff></note>
      <note><pitch><step>D</step><octave>5</octave></pitch><duration>4</duration><voice>1</voice><type>quarter</type><staff>1</staff></note>
      <note><pitch><step>B</step><alter>-1</alter><octave>4</octave></pitch><duration>4</duration><voice>1</voice><type>quarter</type><accidental>flat</accidental><staff>1</staff></note>
      <backup><duration>16</duration></backup>
      <note><pitch><step>G</step><octave>2</octave></pitch><duration>4</duration><voice>2</voice><type>quarter</type><staff>2</staff></note>
      <note><pitch><step>B</step><octave>3</octave></pitch><duration>4</duration><voice>2</voice><type>quarter</type><staff>2</staff></note>
      <note><chord/><pitch><step>D</step><octave>4</octave></pitch><duration>4</duration><voice>2</voice><type>quarter</type><staff>2</staff></note>
      <note><chord/><pitch><step>F</step><octave>4</octave></pitch><duration>4</duration><voice>2</voice><type>quarter</type><accidental>natural</accidental><staff>2</staff></note>
      <note><pitch><step>G</step><octave>2</octave></pitch><duration>4</duration><voice>2</voice><type>quarter</type><staff>2</staff></note>
      <note><pitch><step>B</step><octave>3</octave></pitch><duration>4</duration><voice>2</voice><type>quarter</type><staff>2</staff></note>
      <note><chord/><pitch><step>D</step><octave>4</octave></pitch><duration>4</duration><voice>2</voice><type>quarter</type><staff>2</staff></note>
      <note><chord/><pitch><step>F</step><octave>4</octave></pitch><duration>4</duration><voice>2</voice><type>quarter</type><accidental>natural</accidental><staff>2</staff></note>
    </measure>
    <measure number="4">
      <note><pitch><step>B</step><octave>4</octave></pitch><duration>4</duration><voice>1</voice><type>quarter</type><staff>1</staff></note>
      <note><pitch><step>G</step><octave>4</octave></pitch><duration>4</duration><voice>1</voice><type>quarter</type><staff>1</staff></note>
      <note><pitch><step>D</step><octave>5</octave></pitch><duration>2</duration><voice>1</voice><type>eighth</type><staff>1</staff></note>
      <note><pitch><step>B</step><octave>4</octave></pitch><duration>2</duration><voice>1</voice><type>eighth</type><staff>1</staff></note>
      <note><pitch><step>G</step><octave>4</octave></pitch><duration>4</duration><voice>1</voice><type>quarter</type><staff>1</staff></note>
      <backup><duration>16</duration></backup>
      <note><pitch><step>G</step><octave>2</octave></pitch><duration>4</duration><voice>2</voice><type>quarter</type><staff>2</staff></note>
      <note><pitch><step>B</step><octave>3</octave></pitch><duration>4</duration><voice>2</voice><type>quarter</type><staff>2</staff></note>
      <note><chord/><pitch><step>D</step><octave>4</octave></pitch><duration>4</duration><voice>2</voice><type>quarter</type><staff>2</staff></note>
      <note><chord/><pitch><step>F</step><octave>4</octave></pitch><duration>4</duration><voice>2</voice><type>quarter</type><accidental>natural</accidental><staff>2</staff></note>
      <note><pitch><step>G</step><octave>2</octave></pitch><duration>4</duration><voice>2</voice><type>quarter</type><staff>2</staff></note>
      <note><pitch><step>B</step><octave>3</octave></pitch><duration>4</duration><voice>2</voice><type>quarter</type><staff>2</staff></note>
      <note><chord/><pitch><step>D</step><octave>4</octave></pitch><duration>4</duration><voice>2</voice><type>quarter</type><staff>2</staff></note>
      <note><chord/><pitch><step>F</step><octave>4</octave></pitch><duration>4</duration><voice>2</voice><type>quarter</type><accidental>natural</accidental><staff>2</staff></note>
    </measure>
    <measure number="5">
      <note><pitch><step>E</step><octave>5</octave></pitch><duration>4</duration><voice>1</voice><type>quarter</type><staff>1</staff></note>
      <note><pitch><step>E</step><octave>5</octave></pitch><duration>2</duration><voice>1</voice><type>eighth</type><staff>1</staff></note>
      <note><pitch><step>E</step><octave>5</octave></pitch><duration>2</duration><voice>1</voice><type>eighth</type><staff>1</staff></note>
      <note><pitch><step>D</step><octave>5</octave></pitch><duration>4</duration><voice>1</voice><type>quarter</type><staff>1</staff></note>
      <note><pitch><step>C</step><octave>5</octave></pitch><duration>4</duration><voice>1</voice><type>quarter</type><staff>1</staff></note>
      <backup><duration>16</duration></backup>
      <note><pitch><step>C</step><octave>3</octave></pitch><duration>4</duration><voice>2</voice><type>quarter</type><staff>2</staff></note>
      <note><pitch><step>E</step><octave>3</octave></pitch><duration>4</duration><voice>2</voice><type>quarter</type><staff>2</staff></note>
      <note><chord/><pitch><step>G</step><octave>3</octave></pitch><duration>4</duration><voice>2</voice><type>quarter</type><staff>2</staff></note>
      <note><chord/><pitch><step>B</step><alter>-1</alter><octave>3</octave></pitch><duration>4</duration><voice>2</voice><type>quarter</type><accidental>flat</accidental><staff>2</staff></note>
      <note><pitch><step>C</step><octave>3</octave></pitch><duration>4</duration><voice>2</voice><type>quarter</type><staff>2</staff></note>
      <note><pitch><step>E</step><octave>3</octave></pitch><duration>4</duration><voice>2</voice><type>quarter</type><staff>2</staff></note>
      <note><chord/><pitch><step>G</step><octave>3</octave></pitch><duration>4</duration><voice>2</voice><type>quarter</type><staff>2</staff></note>
      <note><chord/><pitch><step>B</step><alter>-1</alter><octave>3</octave></pitch><duration>4</duration><voice>2</voice><type>quarter</type><accidental>flat</accidental><staff>2</staff></note>
    </measure>
    <measure number="6">
      <note><pitch><step>E</step><octave>5</octave></pitch><duration>4</duration><voice>1</voice><type>quarter</type><staff>1</staff></note>
      <note><pitch><step>C</step><octave>5</octave></pitch><duration>4</duration><voice>1</voice><type>quarter</type><staff>1</staff></note>
      <note><pitch><step>E</step><octave>5</octave></pitch><duration>2</duration><voice>1</voice><type>eighth</type><staff>1</staff></note>
      <note><pitch><step>G</step><octave>5</octave></pitch><duration>2</duration><voice>1</voice><type>eighth</type><staff>1</staff></note>
      <note><pitch><step>E</step><octave>5</octave></pitch><duration>4</duration><voice>1</voice><type>quarter</type><staff>1</staff></note>
      <backup><duration>16</duration></backup>
      <note><pitch><step>C</step><octave>3</octave></pitch><duration>4</duration><voice>2</voice><type>quarter</type><staff>2</staff></note>
      <note><pitch><step>E</step><octave>3</octave></pitch><duration>4</duration><voice>2</voice><type>quarter</type><staff>2</staff></note>
      <note><chord/><pitch><step>G</step><octave>3</octave></pitch><duration>4</duration><voice>2</voice><type>quarter</type><staff>2</staff></note>
      <note><chord/><pitch><step>B</step><alter>-1</alter><octave>3</octave></pitch><duration>4</duration><voice>2</voice><type>quarter</type><accidental>flat</accidental><staff>2</staff></note>
      <note><pitch><step>C</step><octave>3</octave></pitch><duration>4</duration><voice>2</voice><type>quarter</type><staff>2</staff></note>
      <note><pitch><step>E</step><octave>3</octave></pitch><duration>4</duration><voice>2</voice><type>quarter</type><staff>2</staff></note>
      <note><chord/><pitch><step>G</step><octave>3</octave></pitch><duration>4</duration><voice>2</voice><type>quarter</type><staff>2</staff></note>
      <note><chord/><pitch><step>B</step><alter>-1</alter><octave>3</octave></pitch><duration>4</duration><voice>2</voice><type>quarter</type><accidental>flat</accidental><staff>2</staff></note>
    </measure>
    <measure number="7">
      <note><pitch><step>D</step><octave>5</octave></pitch><duration>4</duration><voice>1</voice><type>quarter</type><staff>1</staff></note>
      <note><pitch><step>B</step><octave>4</octave></pitch><duration>4</duration><voice>1</voice><type>quarter</type><staff>1</staff></note>
      <note><pitch><step>G</step><octave>4</octave></pitch><duration>4</duration><voice>1</voice><type>quarter</type><staff>1</staff></note>
      <note><pitch><step>D</step><octave>5</octave></pitch><duration>4</duration><voice>1</voice><type>quarter</type><staff>1</staff></note>
      <backup><duration>16</duration></backup>
      <note><pitch><step>G</step><octave>2</octave></pitch><duration>4</duration><voice>2</voice><type>quarter</type><staff>2</staff></note>
      <note><pitch><step>B</step><octave>3</octave></pitch><duration>4</duration><voice>2</voice><type>quarter</type><staff>2</staff></note>
      <note><chord/><pitch><step>D</step><octave>4</octave></pitch><duration>4</duration><voice>2</voice><type>quarter</type><staff>2</staff></note>
      <note><chord/><pitch><step>F</step><octave>4</octave></pitch><duration>4</duration><voice>2</voice><type>quarter</type><accidental>natural</accidental><staff>2</staff></note>
      <note><pitch><step>G</step><octave>2</octave></pitch><duration>4</duration><voice>2</voice><type>quarter</type><staff>2</staff></note>
      <note><pitch><step>B</step><octave>3</octave></pitch><duration>4</duration><voice>2</voice><type>quarter</type><staff>2</staff></note>
      <note><chord/><pitch><step>D</step><octave>4</octave></pitch><duration>4</duration><voice>2</voice><type>quarter</type><staff>2</staff></note>
      <note><chord/><pitch><step>F</step><octave>4</octave></pitch><duration>4</duration><voice>2</voice><type>quarter</type><accidental>natural</accidental><staff>2</staff></note>
    </measure>
    <measure number="8">
      <note><pitch><step>B</step><octave>4</octave></pitch><duration>6</duration><voice>1</voice><type>quarter</type><dot/><staff>1</staff></note>
      <note><pitch><step>G</step><octave>4</octave></pitch><duration>2</duration><voice>1</voice><type>eighth</type><staff>1</staff></note>
      <note><pitch><step>D</step><octave>5</octave></pitch><duration>4</duration><voice>1</voice><type>quarter</type><staff>1</staff></note>
      <note><rest/><duration>4</duration><voice>1</voice><type>quarter</type><staff>1</staff></note>
      <backup><duration>16</duration></backup>
      <note><pitch><step>G</step><octave>2</octave></pitch><duration>4</duration><voice>2</voice><type>quarter</type><staff>2</staff></note>
      <note><pitch><step>B</step><octave>3</octave></pitch><duration>4</duration><voice>2</voice><type>quarter</type><staff>2</staff></note>
      <note><chord/><pitch><step>D</step><octave>4</octave></pitch><duration>4</duration><voice>2</voice><type>quarter</type><staff>2</staff></note>
      <note><chord/><pitch><step>F</step><octave>4</octave></pitch><duration>4</duration><voice>2</voice><type>quarter</type><accidental>natural</accidental><staff>2</staff></note>
      <note><pitch><step>G</step><octave>2</octave></pitch><duration>4</duration><voice>2</voice><type>quarter</type><staff>2</staff></note>
      <note><pitch><step>B</step><octave>3</octave></pitch><duration>4</duration><voice>2</voice><type>quarter</type><staff>2</staff></note>
      <note><chord/><pitch><step>D</step><octave>4</octave></pitch><duration>4</duration><voice>2</voice><type>quarter</type><staff>2</staff></note>
      <note><chord/><pitch><step>F</step><octave>4</octave></pitch><duration>4</duration><voice>2</voice><type>quarter</type><accidental>natural</accidental><staff>2</staff></note>
    </measure>
    <measure number="9">
      <note><pitch><step>A</step><octave>5</octave></pitch><duration>4</duration><voice>1</voice><type>quarter</type><staff>1</staff></note>
      <note><pitch><step>F</step><alter>1</alter><octave>5</octave></pitch><duration>4</duration><voice>1</voice><type>quarter</type><staff>1</staff></note>
      <note><pitch><step>E</step><octave>5</octave></pitch><duration>4</duration><voice>1</voice><type>quarter</type><staff>1</staff></note>
      <note><pitch><step>C</step><octave>5</octave></pitch><duration>4</duration><voice>1</voice><type>quarter</type><staff>1</staff></note>
      <backup><duration>16</duration></backup>
      <note><pitch><step>D</step><octave>3</octave></pitch><duration>4</duration><voice>2</voice><type>quarter</type><staff>2</staff></note>
      <note><pitch><step>F</step><alter>1</alter><octave>3</octave></pitch><duration>4</duration><voice>2</voice><type>quarter</type><staff>2</staff></note>
      <note><chord/><pitch><step>A</step><octave>3</octave></pitch><duration>4</duration><voice>2</voice><type>quarter</type><staff>2</staff></note>
      <note><chord/><pitch><step>C</step><octave>4</octave></pitch><duration>4</duration><voice>2</voice><type>quarter</type><staff>2</staff></note>
      <note><pitch><step>D</step><octave>3</octave></pitch><duration>4</duration><voice>2</voice><type>quarter</type><staff>2</staff></note>
      <note><pitch><step>F</step><alter>1</alter><octave>3</octave></pitch><duration>4</duration><voice>2</voice><type>quarter</type><staff>2</staff></note>
      <note><chord/><pitch><step>A</step><octave>3</octave></pitch><duration>4</duration><voice>2</voice><type>quarter</type><staff>2</staff></note>
      <note><chord/><pitch><step>C</step><octave>4</octave></pitch><duration>4</duration><voice>2</voice><type>quarter</type><staff>2</staff></note>
    </measure>
    <measure number="10">
      <note><pitch><step>E</step><octave>5</octave></pitch><duration>4</duration><voice>1</voice><type>quarter</type><staff>1</staff></note>
      <note><pitch><step>C</step><octave>5</octave></pitch><duration>4</duration><voice>1</voice><type>quarter</type><staff>1</staff></note>
      <note><pitch><step>B</step><alter>-1</alter><octave>4</octave></pitch><duration>4</duration><voice>1</voice><type>quarter</type><accidental>flat</accidental><staff>1</staff></note>
      <note><pitch><step>G</step><octave>4</octave></pitch><duration>4</duration><voice>1</voice><type>quarter</type><staff>1</staff></note>
      <backup><duration>16</duration></backup>
      <note><pitch><step>C</step><octave>3</octave></pitch><duration>4</duration><voice>2</voice><type>quarter</type><staff>2</staff></note>
      <note><pitch><step>E</step><octave>3</octave></pitch><duration>4</duration><voice>2</voice><type>quarter</type><staff>2</staff></note>
      <note><chord/><pitch><step>G</step><octave>3</octave></pitch><duration>4</duration><voice>2</voice><type>quarter</type><staff>2</staff></note>
      <note><chord/><pitch><step>B</step><alter>-1</alter><octave>3</octave></pitch><duration>4</duration><voice>2</voice><type>quarter</type><accidental>flat</accidental><staff>2</staff></note>
      <note><pitch><step>C</step><octave>3</octave></pitch><duration>4</duration><voice>2</voice><type>quarter</type><staff>2</staff></note>
      <note><pitch><step>E</step><octave>3</octave></pitch><duration>4</duration><voice>2</voice><type>quarter</type><staff>2</staff></note>
      <note><chord/><pitch><step>G</step><octave>3</octave></pitch><duration>4</duration><voice>2</voice><type>quarter</type><staff>2</staff></note>
      <note><chord/><pitch><step>B</step><alter>-1</alter><octave>3</octave></pitch><duration>4</duration><voice>2</voice><type>quarter</type><accidental>flat</accidental><staff>2</staff></note>
    </measure>
    <measure number="11">
      <note><pitch><step>G</step><octave>4</octave></pitch><duration>4</duration><voice>1</voice><type>quarter</type><staff>1</staff></note>
      <note><pitch><step>B</step><octave>4</octave></pitch><duration>2</duration><voice>1</voice><type>eighth</type><staff>1</staff></note>
      <note><pitch><step>D</step><octave>5</octave></pitch><duration>2</duration><voice>1</voice><type>eighth</type><staff>1</staff></note>
      <note><pitch><step>G</step><octave>5</octave></pitch><duration>4</duration><voice>1</voice><type>quarter</type><staff>1</staff></note>
      <note><pitch><step>D</step><octave>5</octave></pitch><duration>4</duration><voice>1</voice><type>quarter</type><staff>1</staff></note>
      <backup><duration>16</duration></backup>
      <note><pitch><step>G</step><octave>2</octave></pitch><duration>4</duration><voice>2</voice><type>quarter</type><staff>2</staff></note>
      <note><pitch><step>B</step><octave>3</octave></pitch><duration>4</duration><voice>2</voice><type>quarter</type><staff>2</staff></note>
      <note><chord/><pitch><step>D</step><octave>4</octave></pitch><duration>4</duration><voice>2</voice><type>quarter</type><staff>2</staff></note>
      <note><chord/><pitch><step>F</step><octave>4</octave></pitch><duration>4</duration><voice>2</voice><type>quarter</type><accidental>natural</accidental><staff>2</staff></note>
      <note><pitch><step>G</step><octave>2</octave></pitch><duration>4</duration><voice>2</voice><type>quarter</type><staff>2</staff></note>
      <note><pitch><step>B</step><octave>3</octave></pitch><duration>4</duration><voice>2</voice><type>quarter</type><staff>2</staff></note>
      <note><chord/><pitch><step>D</step><octave>4</octave></pitch><duration>4</duration><voice>2</voice><type>quarter</type><staff>2</staff></note>
      <note><chord/><pitch><step>F</step><octave>4</octave></pitch><duration>4</duration><voice>2</voice><type>quarter</type><accidental>natural</accidental><staff>2</staff></note>
    </measure>
    <measure number="12">
      <note><pitch><step>D</step><octave>5</octave></pitch><duration>4</duration><voice>1</voice><type>quarter</type><staff>1</staff></note>
      <note><pitch><step>F</step><alter>1</alter><octave>5</octave></pitch><duration>4</duration><voice>1</voice><type>quarter</type><staff>1</staff></note>
      <note><pitch><step>A</step><octave>4</octave></pitch><duration>4</duration><voice>1</voice><type>quarter</type><staff>1</staff></note>
      <note><pitch><step>D</step><octave>5</octave></pitch><duration>4</duration><voice>1</voice><type>quarter</type><staff>1</staff></note>
      <backup><duration>16</duration></backup>
      <note><pitch><step>D</step><octave>3</octave></pitch><duration>4</duration><voice>2</voice><type>quarter</type><staff>2</staff></note>
      <note><pitch><step>F</step><alter>1</alter><octave>3</octave></pitch><duration>4</duration><voice>2</voice><type>quarter</type><staff>2</staff></note>
      <note><chord/><pitch><step>A</step><octave>3</octave></pitch><duration>4</duration><voice>2</voice><type>quarter</type><staff>2</staff></note>
      <note><chord/><pitch><step>C</step><octave>4</octave></pitch><duration>4</duration><voice>2</voice><type>quarter</type><staff>2</staff></note>
      <note><pitch><step>D</step><octave>3</octave></pitch><duration>4</duration><voice>2</voice><type>quarter</type><staff>2</staff></note>
      <note><pitch><step>F</step><alter>1</alter><octave>3</octave></pitch><duration>4</duration><voice>2</voice><type>quarter</type><staff>2</staff></note>
      <note><chord/><pitch><step>A</step><octave>3</octave></pitch><duration>4</duration><voice>2</voice><type>quarter</type><staff>2</staff></note>
      <note><chord/><pitch><step>C</step><octave>4</octave></pitch><duration>4</duration><voice>2</voice><type>quarter</type><staff>2</staff></note>
    </measure>
    <measure number="13">
      <note><pitch><step>D</step><octave>5</octave></pitch><duration>4</duration><voice>1</voice><type>quarter</type><staff>1</staff></note>
      <note><pitch><step>D</step><octave>5</octave></pitch><duration>2</duration><voice>1</voice><type>eighth</type><staff>1</staff></note>
      <note><pitch><step>E</step><alter>-1</alter><octave>5</octave></pitch><duration>2</duration><voice>1</voice><type>eighth</type><accidental>flat</accidental><staff>1</staff></note>
      <note><pitch><step>D</step><octave>5</octave></pitch><duration>4</duration><voice>1</voice><type>quarter</type><staff>1</staff></note>
      <note><pitch><step>B</step><alter>-1</alter><octave>4</octave></pitch><duration>4</duration><voice>1</voice><type>quarter</type><accidental>flat</accidental><staff>1</staff></note>
      <backup><duration>16</duration></backup>
      <note><pitch><step>G</step><octave>2</octave></pitch><duration>3</duration><voice>2</voice><type>eighth</type><dot/><staff>2</staff></note>
      <note><pitch><step>G</step><octave>2</octave></pitch><duration>1</duration><voice>2</voice><type>16th</type><staff>2</staff></note>
      <note><pitch><step>D</step><octave>3</octave></pitch><duration>2</duration><voice>2</voice><type>eighth</type><staff>2</staff></note>
      <note><chord/><pitch><step>G</step><octave>3</octave></pitch><duration>2</duration><voice>2</voice><type>eighth</type><staff>2</staff></note>
      <note><chord/><pitch><step>B</step><alter>-1</alter><octave>3</octave></pitch><duration>2</duration><voice>2</voice><type>eighth</type><accidental>flat</accidental><staff>2</staff></note>
      <note><pitch><step>D</step><octave>3</octave></pitch><duration>2</duration><voice>2</voice><type>eighth</type><staff>2</staff></note>
      <note><chord/><pitch><step>G</step><octave>3</octave></pitch><duration>2</duration><voice>2</voice><type>eighth</type><staff>2</staff></note>
      <note><chord/><pitch><step>B</step><alter>-1</alter><octave>3</octave></pitch><duration>2</duration><voice>2</voice><type>eighth</type><accidental>flat</accidental><staff>2</staff></note>
      <note><pitch><step>G</step><octave>2</octave></pitch><duration>3</duration><voice>2</voice><type>eighth</type><dot/><staff>2</staff></note>
      <note><pitch><step>G</step><octave>2</octave></pitch><duration>1</duration><voice>2</voice><type>16th</type><staff>2</staff></note>
      <note><pitch><step>D</step><octave>3</octave></pitch><duration>2</duration><voice>2</voice><type>eighth</type><staff>2</staff></note>
      <note><chord/><pitch><step>G</step><octave>3</octave></pitch><duration>2</duration><voice>2</voice><type>eighth</type><staff>2</staff></note>
      <note><chord/><pitch><step>B</step><alter>-1</alter><octave>3</octave></pitch><duration>2</duration><voice>2</voice><type>eighth</type><accidental>flat</accidental><staff>2</staff></note>
      <note><pitch><step>D</step><octave>3</octave></pitch><duration>2</duration><voice>2</voice><type>eighth</type><staff>2</staff></note>
      <note><chord/><pitch><step>G</step><octave>3</octave></pitch><duration>2</duration><voice>2</voice><type>eighth</type><staff>2</staff></note>
      <note><chord/><pitch><step>B</step><alter>-1</alter><octave>3</octave></pitch><duration>2</duration><voice>2</voice><type>eighth</type><accidental>flat</accidental><staff>2</staff></note>
    </measure>
    <measure number="14">
      <note><pitch><step>G</step><octave>4</octave></pitch><duration>4</duration><voice>1</voice><type>quarter</type><staff>1</staff></note>
      <note><pitch><step>B</step><alter>-1</alter><octave>4</octave></pitch><duration>4</duration><voice>1</voice><type>quarter</type><accidental>flat</accidental><staff>1</staff></note>
      <note><pitch><step>D</step><octave>5</octave></pitch><duration>4</duration><voice>1</voice><type>quarter</type><staff>1</staff></note>
      <note><pitch><step>B</step><alter>-1</alter><octave>4</octave></pitch><duration>4</duration><voice>1</voice><type>quarter</type><accidental>flat</accidental><staff>1</staff></note>
      <backup><duration>16</duration></backup>
      <note><pitch><step>G</step><octave>2</octave></pitch><duration>3</duration><voice>2</voice><type>eighth</type><dot/><staff>2</staff></note>
      <note><pitch><step>G</step><octave>2</octave></pitch><duration>1</duration><voice>2</voice><type>16th</type><staff>2</staff></note>
      <note><pitch><step>D</step><octave>3</octave></pitch><duration>2</duration><voice>2</voice><type>eighth</type><staff>2</staff></note>
      <note><chord/><pitch><step>G</step><octave>3</octave></pitch><duration>2</duration><voice>2</voice><type>eighth</type><staff>2</staff></note>
      <note><chord/><pitch><step>B</step><alter>-1</alter><octave>3</octave></pitch><duration>2</duration><voice>2</voice><type>eighth</type><accidental>flat</accidental><staff>2</staff></note>
      <note><pitch><step>D</step><octave>3</octave></pitch><duration>2</duration><voice>2</voice><type>eighth</type><staff>2</staff></note>
      <note><chord/><pitch><step>G</step><octave>3</octave></pitch><duration>2</duration><voice>2</voice><type>eighth</type><staff>2</staff></note>
      <note><chord/><pitch><step>B</step><alter>-1</alter><octave>3</octave></pitch><duration>2</duration><voice>2</voice><type>eighth</type><accidental>flat</accidental><staff>2</staff></note>
      <note><pitch><step>G</step><octave>2</octave></pitch><duration>3</duration><voice>2</voice><type>eighth</type><dot/><staff>2</staff></note>
      <note><pitch><step>G</step><octave>2</octave></pitch><duration>1</duration><voice>2</voice><type>16th</type><staff>2</staff></note>
      <note><pitch><step>D</step><octave>3</octave></pitch><duration>2</duration><voice>2</voice><type>eighth</type><staff>2</staff></note>
      <note><chord/><pitch><step>G</step><octave>3</octave></pitch><duration>2</duration><voice>2</voice><type>eighth</type><staff>2</staff></note>
      <note><chord/><pitch><step>B</step><alter>-1</alter><octave>3</octave></pitch><duration>2</duration><voice>2</voice><type>eighth</type><accidental>flat</accidental><staff>2</staff></note>
      <note><pitch><step>D</step><octave>3</octave></pitch><duration>2</duration><voice>2</voice><type>eighth</type><staff>2</staff></note>
      <note><chord/><pitch><step>G</step><octave>3</octave></pitch><duration>2</duration><voice>2</voice><type>eighth</type><staff>2</staff></note>
      <note><chord/><pitch><step>B</step><alter>-1</alter><octave>3</octave></pitch><duration>2</duration><voice>2</voice><type>eighth</type><accidental>flat</accidental><staff>2</staff></note>
    </measure>
    <measure number="15">
      <note><pitch><step>A</step><octave>4</octave></pitch><duration>4</duration><voice>1</voice><type>quarter</type><staff>1</staff></note>
      <note><pitch><step>C</step><octave>5</octave></pitch><duration>4</duration><voice>1</voice><type>quarter</type><staff>1</staff></note>
      <note><pitch><step>E</step><alter>-1</alter><octave>5</octave></pitch><duration>4</duration><voice>1</voice><type>quarter</type><accidental>flat</accidental><staff>1</staff></note>
      <note><pitch><step>D</step><octave>5</octave></pitch><duration>4</duration><voice>1</voice><type>quarter</type><staff>1</staff></note>
      <backup><duration>16</duration></backup>
      <note><pitch><step>D</step><octave>3</octave></pitch><duration>3</duration><voice>2</voice><type>eighth</type><dot/><staff>2</staff></note>
      <note><pitch><step>D</step><octave>3</octave></pitch><duration>1</duration><voice>2</voice><type>16th</type><staff>2</staff></note>
      <note><pitch><step>F</step><alter>1</alter><octave>3</octave></pitch><duration>2</duration><voice>2</voice><type>eighth</type><staff>2</staff></note>
      <note><chord/><pitch><step>A</step><octave>3</octave></pitch><duration>2</duration><voice>2</voice><type>eighth</type><staff>2</staff></note>
      <note><chord/><pitch><step>C</step><octave>4</octave></pitch><duration>2</duration><voice>2</voice><type>eighth</type><staff>2</staff></note>
      <note><pitch><step>F</step><alter>1</alter><octave>3</octave></pitch><duration>2</duration><voice>2</voice><type>eighth</type><staff>2</staff></note>
      <note><chord/><pitch><step>A</step><octave>3</octave></pitch><duration>2</duration><voice>2</voice><type>eighth</type><staff>2</staff></note>
      <note><chord/><pitch><step>C</step><octave>4</octave></pitch><duration>2</duration><voice>2</voice><type>eighth</type><staff>2</staff></note>
      <note><pitch><step>D</step><octave>3</octave></pitch><duration>3</duration><voice>2</voice><type>eighth</type><dot/><staff>2</staff></note>
      <note><pitch><step>D</step><octave>3</octave></pitch><duration>1</duration><voice>2</voice><type>16th</type><staff>2</staff></note>
      <note><pitch><step>F</step><alter>1</alter><octave>3</octave></pitch><duration>2</duration><voice>2</voice><type>eighth</type><staff>2</staff></note>
      <note><chord/><pitch><step>A</step><octave>3</octave></pitch><duration>2</duration><voice>2</voice><type>eighth</type><staff>2</staff></note>
      <note><chord/><pitch><step>C</step><octave>4</octave></pitch><duration>2</duration><voice>2</voice><type>eighth</type><staff>2</staff></note>
      <note><pitch><step>F</step><alter>1</alter><octave>3</octave></pitch><duration>2</duration><voice>2</voice><type>eighth</type><staff>2</staff></note>
      <note><chord/><pitch><step>A</step><octave>3</octave></pitch><duration>2</duration><voice>2</voice><type>eighth</type><staff>2</staff></note>
      <note><chord/><pitch><step>C</step><octave>4</octave></pitch><duration>2</duration><voice>2</voice><type>eighth</type><staff>2</staff></note>
    </measure>
    <measure number="16">
      <note><pitch><step>D</step><octave>5</octave></pitch><duration>8</duration><voice>1</voice><type>half</type><staff>1</staff></note>
      <note><pitch><step>B</step><alter>-1</alter><octave>4</octave></pitch><duration>4</duration><voice>1</voice><type>quarter</type><accidental>flat</accidental><staff>1</staff></note>
      <note><pitch><step>G</step><octave>4</octave></pitch><duration>4</duration><voice>1</voice><type>quarter</type><staff>1</staff></note>
      <backup><duration>16</duration></backup>
      <note><pitch><step>G</step><octave>2</octave></pitch><duration>3</duration><voice>2</voice><type>eighth</type><dot/><staff>2</staff></note>
      <note><pitch><step>G</step><octave>2</octave></pitch><duration>1</duration><voice>2</voice><type>16th</type><staff>2</staff></note>
      <note><pitch><step>D</step><octave>3</octave></pitch><duration>2</duration><voice>2</voice><type>eighth</type><staff>2</staff></note>
      <note><chord/><pitch><step>G</step><octave>3</octave></pitch><duration>2</duration><voice>2</voice><type>eighth</type><staff>2</staff></note>
      <note><chord/><pitch><step>B</step><alter>-1</alter><octave>3</octave></pitch><duration>2</duration><voice>2</voice><type>eighth</type><accidental>flat</accidental><staff>2</staff></note>
      <note><pitch><step>D</step><octave>3</octave></pitch><duration>2</duration><voice>2</voice><type>eighth</type><staff>2</staff></note>
      <note><chord/><pitch><step>G</step><octave>3</octave></pitch><duration>2</duration><voice>2</voice><type>eighth</type><staff>2</staff></note>
      <note><chord/><pitch><step>B</step><alter>-1</alter><octave>3</octave></pitch><duration>2</duration><voice>2</voice><type>eighth</type><accidental>flat</accidental><staff>2</staff></note>
      <note><pitch><step>G</step><octave>2</octave></pitch><duration>3</duration><voice>2</voice><type>eighth</type><dot/><staff>2</staff></note>
      <note><pitch><step>G</step><octave>2</octave></pitch><duration>1</duration><voice>2</voice><type>16th</type><staff>2</staff></note>
      <note><pitch><step>D</step><octave>3</octave></pitch><duration>2</duration><voice>2</voice><type>eighth</type><staff>2</staff></note>
      <note><chord/><pitch><step>G</step><octave>3</octave></pitch><duration>2</duration><voice>2</voice><type>eighth</type><staff>2</staff></note>
      <note><chord/><pitch><step>B</step><alter>-1</alter><octave>3</octave></pitch><duration>2</duration><voice>2</voice><type>eighth</type><accidental>flat</accidental><staff>2</staff></note>
      <note><pitch><step>D</step><octave>3</octave></pitch><duration>2</duration><voice>2</voice><type>eighth</type><staff>2</staff></note>
      <note><chord/><pitch><step>G</step><octave>3</octave></pitch><duration>2</duration><voice>2</voice><type>eighth</type><staff>2</staff></note>
      <note><chord/><pitch><step>B</step><alter>-1</alter><octave>3</octave></pitch><duration>2</duration><voice>2</voice><type>eighth</type><accidental>flat</accidental><staff>2</staff></note>
    </measure>
    <measure number="17">
      <note><pitch><step>D</step><octave>5</octave></pitch><duration>4</duration><voice>1</voice><type>quarter</type><staff>1</staff></note>
      <note><pitch><step>D</step><octave>5</octave></pitch><duration>2</duration><voice>1</voice><type>eighth</type><staff>1</staff></note>
      <note><pitch><step>E</step><alter>-1</alter><octave>5</octave></pitch><duration>2</duration><voice>1</voice><type>eighth</type><accidental>flat</accidental><staff>1</staff></note>
      <note><pitch><step>D</step><octave>5</octave></pitch><duration>4</duration><voice>1</voice><type>quarter</type><staff>1</staff></note>
      <note><pitch><step>B</step><alter>-1</alter><octave>4</octave></pitch><duration>4</duration><voice>1</voice><type>quarter</type><accidental>flat</accidental><staff>1</staff></note>
      <backup><duration>16</duration></backup>
      <note><pitch><step>G</step><octave>2</octave></pitch><duration>3</duration><voice>2</voice><type>eighth</type><dot/><staff>2</staff></note>
      <note><pitch><step>G</step><octave>2</octave></pitch><duration>1</duration><voice>2</voice><type>16th</type><staff>2</staff></note>
      <note><pitch><step>D</step><octave>3</octave></pitch><duration>2</duration><voice>2</voice><type>eighth</type><staff>2</staff></note>
      <note><chord/><pitch><step>G</step><octave>3</octave></pitch><duration>2</duration><voice>2</voice><type>eighth</type><staff>2</staff></note>
      <note><chord/><pitch><step>B</step><alter>-1</alter><octave>3</octave></pitch><duration>2</duration><voice>2</voice><type>eighth</type><accidental>flat</accidental><staff>2</staff></note>
      <note><pitch><step>D</step><octave>3</octave></pitch><duration>2</duration><voice>2</voice><type>eighth</type><staff>2</staff></note>
      <note><chord/><pitch><step>G</step><octave>3</octave></pitch><duration>2</duration><voice>2</voice><type>eighth</type><staff>2</staff></note>
      <note><chord/><pitch><step>B</step><alter>-1</alter><octave>3</octave></pitch><duration>2</duration><voice>2</voice><type>eighth</type><accidental>flat</accidental><staff>2</staff></note>
      <note><pitch><step>G</step><octave>2</octave></pitch><duration>3</duration><voice>2</voice><type>eighth</type><dot/><staff>2</staff></note>
      <note><pitch><step>G</step><octave>2</octave></pitch><duration>1</duration><voice>2</voice><type>16th</type><staff>2</staff></note>
      <note><pitch><step>D</step><octave>3</octave></pitch><duration>2</duration><voice>2</voice><type>eighth</type><staff>2</staff></note>
      <note><chord/><pitch><step>G</step><octave>3</octave></pitch><duration>2</duration><voice>2</voice><type>eighth</type><staff>2</staff></note>
      <note><chord/><pitch><step>B</step><alter>-1</alter><octave>3</octave></pitch><duration>2</duration><voice>2</voice><type>eighth</type><accidental>flat</accidental><staff>2</staff></note>
      <note><pitch><step>D</step><octave>3</octave></pitch><duration>2</duration><voice>2</voice><type>eighth</type><staff>2</staff></note>
      <note><chord/><pitch><step>G</step><octave>3</octave></pitch><duration>2</duration><voice>2</voice><type>eighth</type><staff>2</staff></note>
      <note><chord/><pitch><step>B</step><alter>-1</alter><octave>3</octave></pitch><duration>2</duration><voice>2</voice><type>eighth</type><accidental>flat</accidental><staff>2</staff></note>
    </measure>
    <measure number="18">
      <note><pitch><step>E</step><alter>-1</alter><octave>5</octave></pitch><duration>4</duration><voice>1</voice><type>quarter</type><accidental>flat</accidental><staff>1</staff></note>
      <note><pitch><step>G</step><octave>5</octave></pitch><duration>4</duration><voice>1</voice><type>quarter</type><staff>1</staff></note>
      <note><pitch><step>E</step><alter>-1</alter><octave>5</octave></pitch><duration>4</duration><voice>1</voice><type>quarter</type><accidental>flat</accidental><staff>1</staff></note>
      <note><pitch><step>C</step><octave>5</octave></pitch><duration>4</duration><voice>1</voice><type>quarter</type><staff>1</staff></note>
      <backup><duration>16</duration></backup>
      <note><pitch><step>C</step><octave>3</octave></pitch><duration>3</duration><voice>2</voice><type>eighth</type><dot/><staff>2</staff></note>
      <note><pitch><step>C</step><octave>3</octave></pitch><duration>1</duration><voice>2</voice><type>16th</type><staff>2</staff></note>
      <note><pitch><step>E</step><alter>-1</alter><octave>3</octave></pitch><duration>2</duration><voice>2</voice><type>eighth</type><accidental>flat</accidental><staff>2</staff></note>
      <note><chord/><pitch><step>G</step><octave>3</octave></pitch><duration>2</duration><voice>2</voice><type>eighth</type><staff>2</staff></note>
      <note><chord/><pitch><step>C</step><octave>4</octave></pitch><duration>2</duration><voice>2</voice><type>eighth</type><staff>2</staff></note>
      <note><pitch><step>E</step><alter>-1</alter><octave>3</octave></pitch><duration>2</duration><voice>2</voice><type>eighth</type><accidental>flat</accidental><staff>2</staff></note>
      <note><chord/><pitch><step>G</step><octave>3</octave></pitch><duration>2</duration><voice>2</voice><type>eighth</type><staff>2</staff></note>
      <note><chord/><pitch><step>C</step><octave>4</octave></pitch><duration>2</duration><voice>2</voice><type>eighth</type><staff>2</staff></note>
      <note><pitch><step>C</step><octave>3</octave></pitch><duration>3</duration><voice>2</voice><type>eighth</type><dot/><staff>2</staff></note>
      <note><pitch><step>C</step><octave>3</octave></pitch><duration>1</duration><voice>2</voice><type>16th</type><staff>2</staff></note>
      <note><pitch><step>E</step><alter>-1</alter><octave>3</octave></pitch><duration>2</duration><voice>2</voice><type>eighth</type><accidental>flat</accidental><staff>2</staff></note>
      <note><chord/><pitch><step>G</step><octave>3</octave></pitch><duration>2</duration><voice>2</voice><type>eighth</type><staff>2</staff></note>
      <note><chord/><pitch><step>C</step><octave>4</octave></pitch><duration>2</duration><voice>2</voice><type>eighth</type><staff>2</staff></note>
      <note><pitch><step>E</step><alter>-1</alter><octave>3</octave></pitch><duration>2</duration><voice>2</voice><type>eighth</type><accidental>flat</accidental><staff>2</staff></note>
      <note><chord/><pitch><step>G</step><octave>3</octave></pitch><duration>2</duration><voice>2</voice><type>eighth</type><staff>2</staff></note>
      <note><chord/><pitch><step>C</step><octave>4</octave></pitch><duration>2</duration><voice>2</voice><type>eighth</type><staff>2</staff></note>
    </measure>
    <measure number="19">
      <note><pitch><step>A</step><octave>4</octave></pitch><duration>4</duration><voice>1</voice><type>quarter</type><staff>1</staff></note>
      <note><pitch><step>C</step><octave>5</octave></pitch><duration>4</duration><voice>1</voice><type>quarter</type><staff>1</staff></note>
      <note><pitch><step>E</step><alter>-1</alter><octave>5</octave></pitch><duration>4</duration><voice>1</voice><type>quarter</type><accidental>flat</accidental><staff>1</staff></note>
      <note><pitch><step>D</step><octave>5</octave></pitch><duration>4</duration><voice>1</voice><type>quarter</type><staff>1</staff></note>
      <backup><duration>16</duration></backup>
      <note><pitch><step>D</step><octave>3</octave></pitch><duration>3</duration><voice>2</voice><type>eighth</type><dot/><staff>2</staff></note>
      <note><pitch><step>D</step><octave>3</octave></pitch><duration>1</duration><voice>2</voice><type>16th</type><staff>2</staff></note>
      <note><pitch><step>F</step><alter>1</alter><octave>3</octave></pitch><duration>2</duration><voice>2</voice><type>eighth</type><staff>2</staff></note>
      <note><chord/><pitch><step>A</step><octave>3</octave></pitch><duration>2</duration><voice>2</voice><type>eighth</type><staff>2</staff></note>
      <note><chord/><pitch><step>C</step><octave>4</octave></pitch><duration>2</duration><voice>2</voice><type>eighth</type><staff>2</staff></note>
      <note><pitch><step>F</step><alter>1</alter><octave>3</octave></pitch><duration>2</duration><voice>2</voice><type>eighth</type><staff>2</staff></note>
      <note><chord/><pitch><step>A</step><octave>3</octave></pitch><duration>2</duration><voice>2</voice><type>eighth</type><staff>2</staff></note>
      <note><chord/><pitch><step>C</step><octave>4</octave></pitch><duration>2</duration><voice>2</voice><type>eighth</type><staff>2</staff></note>
      <note><pitch><step>D</step><octave>3</octave></pitch><duration>3</duration><voice>2</voice><type>eighth</type><dot/><staff>2</staff></note>
      <note><pitch><step>D</step><octave>3</octave></pitch><duration>1</duration><voice>2</voice><type>16th</type><staff>2</staff></note>
      <note><pitch><step>F</step><alter>1</alter><octave>3</octave></pitch><duration>2</duration><voice>2</voice><type>eighth</type><staff>2</staff></note>
      <note><chord/><pitch><step>A</step><octave>3</octave></pitch><duration>2</duration><voice>2</voice><type>eighth</type><staff>2</staff></note>
      <note><chord/><pitch><step>C</step><octave>4</octave></pitch><duration>2</duration><voice>2</voice><type>eighth</type><staff>2</staff></note>
      <note><pitch><step>F</step><alter>1</alter><octave>3</octave></pitch><duration>2</duration><voice>2</voice><type>eighth</type><staff>2</staff></note>
      <note><chord/><pitch><step>A</step><octave>3</octave></pitch><duration>2</duration><voice>2</voice><type>eighth</type><staff>2</staff></note>
      <note><chord/><pitch><step>C</step><octave>4</octave></pitch><duration>2</duration><voice>2</voice><type>eighth</type><staff>2</staff></note>
    </measure>
    <measure number="20">
      <note><pitch><step>G</step><octave>4</octave></pitch><duration>8</duration><voice>1</voice><type>half</type><staff>1</staff></note>
      <note><pitch><step>D</step><octave>5</octave></pitch><duration>4</duration><voice>1</voice><type>quarter</type><staff>1</staff></note>
      <note><pitch><step>G</step><octave>4</octave></pitch><duration>4</duration><voice>1</voice><type>quarter</type><staff>1</staff></note>
      <backup><duration>16</duration></backup>
      <note><pitch><step>G</step><octave>2</octave></pitch><duration>3</duration><voice>2</voice><type>eighth</type><dot/><staff>2</staff></note>
      <note><pitch><step>G</step><octave>2</octave></pitch><duration>1</duration><voice>2</voice><type>16th</type><staff>2</staff></note>
      <note><pitch><step>D</step><octave>3</octave></pitch><duration>2</duration><voice>2</voice><type>eighth</type><staff>2</staff></note>
      <note><chord/><pitch><step>G</step><octave>3</octave></pitch><duration>2</duration><voice>2</voice><type>eighth</type><staff>2</staff></note>
      <note><chord/><pitch><step>B</step><alter>-1</alter><octave>3</octave></pitch><duration>2</duration><voice>2</voice><type>eighth</type><accidental>flat</accidental><staff>2</staff></note>
      <note><pitch><step>D</step><octave>3</octave></pitch><duration>2</duration><voice>2</voice><type>eighth</type><staff>2</staff></note>
      <note><chord/><pitch><step>G</step><octave>3</octave></pitch><duration>2</duration><voice>2</voice><type>eighth</type><staff>2</staff></note>
      <note><chord/><pitch><step>B</step><alter>-1</alter><octave>3</octave></pitch><duration>2</duration><voice>2</voice><type>eighth</type><accidental>flat</accidental><staff>2</staff></note>
      <note><pitch><step>G</step><octave>2</octave></pitch><duration>3</duration><voice>2</voice><type>eighth</type><dot/><staff>2</staff></note>
      <note><pitch><step>G</step><octave>2</octave></pitch><duration>1</duration><voice>2</voice><type>16th</type><staff>2</staff></note>
      <note><pitch><step>D</step><octave>3</octave></pitch><duration>2</duration><voice>2</voice><type>eighth</type><staff>2</staff></note>
      <note><chord/><pitch><step>G</step><octave>3</octave></pitch><duration>2</duration><voice>2</voice><type>eighth</type><staff>2</staff></note>
      <note><chord/><pitch><step>B</step><alter>-1</alter><octave>3</octave></pitch><duration>2</duration><voice>2</voice><type>eighth</type><accidental>flat</accidental><staff>2</staff></note>
      <note><pitch><step>D</step><octave>3</octave></pitch><duration>2</duration><voice>2</voice><type>eighth</type><staff>2</staff></note>
      <note><chord/><pitch><step>G</step><octave>3</octave></pitch><duration>2</duration><voice>2</voice><type>eighth</type><staff>2</staff></note>
      <note><chord/><pitch><step>B</step><alter>-1</alter><octave>3</octave></pitch><duration>2</duration><voice>2</voice><type>eighth</type><accidental>flat</accidental><staff>2</staff></note>
    </measure>
  </part>
</score-partwise>
