<?xml version="1.0" encoding="UTF-8"?>
<score-partwise version="3.1">
  <part-list><score-part id="P1"><part-name>Ave Maria</part-name></score-part></part-list>
  <part id="P1">
    <measure number="1">
      <attributes><divisions>12</divisions><key><fifths>-2</fifths></key><time><beats>4</beats><beat-type>4</beat-type></time><staves>2</staves><clef number="1"><sign>G</sign><line>2</line></clef><clef number="2"><sign>F</sign><line>4</line></clef></attributes>
      <note><rest measure="yes"/><duration>48</duration><voice>1</voice><staff>1</staff></note>
      <backup><duration>48</duration></backup>
      <note><pitch><step>B</step><alter>-1</alter><octave>2</octave></pitch><duration>3</duration><voice>2</voice><type>16th</type><staff>2</staff></note>
      <note><pitch><step>F</step><octave>3</octave></pitch><duration>3</duration><voice>2</voice><type>16th</type><staff>2</staff></note>
      <note><pitch><step>B</step><alter>-1</alter><octave>3</octave></pitch><duration>3</duration><voice>2</voice><type>16th</type><staff>2</staff></note>
      <note><pitch><step>D</step><octave>4</octave></pitch><duration>3</duration><voice>2</voice><type>16th</type><staff>2</staff></note>
      <note><pitch><step>B</step><alter>-1</alter><octave>2</octave></pitch><duration>3</duration><voice>2</voice><type>16th</type><staff>2</staff></note>
      <note><pitch><step>F</step><octave>3</octave></pitch><duration>3</duration><voice>2</voice><type>16th</type><staff>2</staff></note>
      <note><pitch><step>B</step><alter>-1</alter><octave>3</octave></pitch><duration>3</duration><voice>2</voice><type>16th</type><staff>2</staff></note>
      <note><pitch><step>D</step><octave>4</octave></pitch><duration>3</duration><voice>2</voice><type>16th</type><staff>2</staff></note>
      <note><pitch><step>B</step><alter>-1</alter><octave>2</octave></pitch><duration>3</duration><voice>2</voice><type>16th</type><staff>2</staff></note>
      <note><pitch><step>F</step><octave>3</octave></pitch><duration>3</duration><voice>2</voice><type>16th</type><staff>2</staff></note>
      <note><pitch><step>B</step><alter>-1</alter><octave>3</octave></pitch><duration>3</duration><voice>2</voice><type>16th</type><staff>2</staff></note>
      <note><pitch><step>D</step><octave>4</octave></pitch><duration>3</duration><voice>2</voice><type>16th</type><staff>2</staff></note>
      <note><pitch><step>B</step><alter>-1</alter><octave>2</octave></pitch><duration>3</duration><voice>2</voice><type>16th</type><staff>2</staff></note>
      <note><pitch><step>F</step><octave>3</octave></pitch><duration>3</duration><voice>2</voice><type>16th</type><staff>2</staff></note>
      <note><pitch><step>B</step><alter>-1</alter><octave>3</octave></pitch><duration>3</duration><voice>2</voice><type>16th</type><staff>2</staff></note>
      <note><pitch><step>D</step><octave>4</octave></pitch><duration>3</duration><voice>2</voice><type>16th</type><staff>2</staff></note>
    </measure>
    <measure number="2">
      <note><rest measure="yes"/><duration>48</duration><voice>1</voice><staff>1</staff></note>
      <backup><duration>48</duration></backup>
      <note><pitch><step>F</step><octave>2</octave></pitch><duration>3</duration><voice>2</voice><type>16th</type><staff>2</staff></note>
      <note><pitch><step>C</step><octave>3</octave></pitch><duration>3</duration><voice>2</voice><type>16th</type><staff>2</staff></note>
      <note><pitch><step>F</step><octave>3</octave></pitch><duration>3</duration><voice>2</voice><type>16th</type><staff>2</staff></note>
      <note><pitch><step>A</step><octave>3</octave></pitch><duration>3</duration><voice>2</voice><type>16th</type><staff>2</staff></note>
      <note><pitch><step>F</step><octave>2</octave></pitch><duration>3</duration><voice>2</voice><type>16th</type><staff>2</staff></note>
      <note><pitch><step>C</step><octave>3</octave></pitch><duration>3</duration><voice>2</voice><type>16th</type><staff>2</staff></note>
      <note><pitch><step>F</step><octave>3</octave></pitch><duration>3</duration><voice>2</voice><type>16th</type><staff>2</staff></note>
      <note><pitch><step>A</step><octave>3</octave></pitch><duration>3</duration><voice>2</voice><type>16th</type><staff>2</staff></note>
      <note><pitch><step>F</step><octave>2</octave></pitch><duration>3</duration><voice>2</voice><type>16th</type><staff>2</staff></note>
      <note><pitch><step>C</step><octave>3</octave></pitch><duration>3</duration><voice>2</voice><type>16th</type><staff>2</staff></note>
      <note><pitch><step>F</step><octave>3</octave></pitch><duration>3</duration><voice>2</voice><type>16th</type><staff>2</staff></note>
      <note><pitch><step>A</step><octave>3</octave></pitch><duration>3</duration><voice>2</voice><type>16th</type><staff>2</staff></note>
      <note><pitch><step>F</step><octave>2</octave></pitch><duration>3</duration><voice>2</voice><type>16th</type><staff>2</staff></note>
      <note><pitch><step>C</step><octave>3</octave></pitch><duration>3</duration><voice>2</voice><type>16th</type><staff>2</staff></note>
      <note><pitch><step>F</step><octave>3</octave></pitch><duration>3</duration><voice>2</voice><type>16th</type><staff>2</staff></note>
      <note><pitch><step>A</step><octave>3</octave></pitch><duration>3</duration><voice>2</voice><type>16th</type><staff>2</staff></note>
    </measure>
    <measure number="3">
      <note><pitch><step>F</step><octave>4</octave></pitch><duration>24</duration><voice>1</voice><type>half</type><staff>1</staff></note>
      <note><pitch><step>B</step><alter>-1</alter><octave>4</octave></pitch><duration>12</duration><voice>1</voice><type>quarter</type><staff>1</staff></note>
      <note><pitch><step>B</step><alter>-1</alter><octave>4</octave></pitch><duration>12</duration><voice>1</voice><type>quarter</type><staff>1</staff></note>
      <backup><duration>48</duration></backup>
      <note><pitch><step>B</step><alter>-1</alter><octave>2</octave></pitch><duration>3</duration><voice>2</voice><type>16th</type><staff>2</staff></note>
      <note><pitch><step>F</step><octave>3</octave></pitch><duration>3</duration><voice>2</voice><type>16th</type><staff>2</staff></note>
      <note><pitch><step>B</step><alter>-1</alter><octave>3</octave></pitch><duration>3</duration><voice>2</voice><type>16th</type><staff>2</staff></note>
      <note><pitch><step>D</step><octave>4</octave></pitch><duration>3</duration><voice>2</voice><type>16th</type><staff>2</staff></note>
      <note><pitch><step>B</step><alter>-1</alter><octave>2</octave></pitch><duration>3</duration><voice>2</voice><type>16th</type><staff>2</staff></note>
      <note><pitch><step>F</step><octave>3</octave></pitch><duration>3</duration><voice>2</voice><type>16th</type><staff>2</staff></note>
      <note><pitch><step>B</step><alter>-1</alter><octave>3</octave></pitch><duration>3</duration><voice>2</voice><type>16th</type><staff>2</staff></note>
      <note><pitch><step>D</step><octave>4</octave></pitch><duration>3</duration><voice>2</voice><type>16th</type><staff>2</staff></note>
      <note><pitch><step>B</step><alter>-1</alter><octave>2</octave></pitch><duration>3</duration><voice>2</voice><type>16th</type><staff>2</staff></note>
      <note><pitch><step>F</step><octave>3</octave></pitch><duration>3</duration><voice>2</voice><type>16th</type><staff>2</staff></note>
      <note><pitch><step>B</step><alter>-1</alter><octave>3</octave></pitch><duration>3</duration><voice>2</voice><type>16th</type><staff>2</staff></note>
      <note><pitch><step>D</step><octave>4</octave></pitch><duration>3</duration><voice>2</voice><type>16th</type><staff>2</staff></note>
      <note><pitch><step>B</step><alter>-1</alter><octave>2</octave></pitch><duration>3</duration><voice>2</voice><type>16th</type><staff>2</staff></note>
      <note><pitch><step>F</step><octave>3</octave></pitch><duration>3</duration><voice>2</voice><type>16th</type><staff>2</staff></note>
      <note><pitch><step>B</step><alter>-1</alter><octave>3</octave></pitch><duration>3</duration><voice>2</voice><type>16th</type><staff>2</staff></note>
      <note><pitch><step>D</step><octave>4</octave></pitch><duration>3</duration><voice>2</voice><type>16th</type><staff>2</staff></note>
    </measure>
    <measure number="4">
      <note><pitch><step>A</step><octave>4</octave></pitch><duration>12</duration><voice>1</voice><type>quarter</type><staff>1</staff></note>
      <note><pitch><step>B</step><alter>-1</alter><octave>4</octave></pitch><duration>12</duration><voice>1</voice><type>quarter</type><staff>1</staff></note>
      <note><pitch><step>C</step><octave>5</octave></pitch><duration>24</duration><voice>1</voice><type>half</type><staff>1</staff></note>
      <backup><duration>48</duration></backup>
      <note><pitch><step>F</step><octave>2</octave></pitch><duration>3</duration><voice>2</voice><type>16th</type><staff>2</staff></note>
      <note><pitch><step>C</step><octave>3</octave></pitch><duration>3</duration><voice>2</voice><type>16th</type><staff>2</staff></note>
      <note><pitch><step>F</step><octave>3</octave></pitch><duration>3</duration><voice>2</voice><type>16th</type><staff>2</staff></note>
      <note><pitch><step>A</step><octave>3</octave></pitch><duration>3</duration><voice>2</voice><type>16th</type><staff>2</staff></note>
      <note><pitch><step>F</step><octave>2</octave></pitch><duration>3</duration><voice>2</voice><type>16th</type><staff>2</staff></note>
      <note><pitch><step>C</step><octave>3</octave></pitch><duration>3</duration><voice>2</voice><type>16th</type><staff>2</staff></note>
      <note><pitch><step>F</step><octave>3</octave></pitch><duration>3</duration><voice>2</voice><type>16th</type><staff>2</staff></note>
      <note><pitch><step>A</step><octave>3</octave></pitch><duration>3</duration><voice>2</voice><type>16th</type><staff>2</staff></note>
      <note><pitch><step>F</step><octave>2</octave></pitch><duration>3</duration><voice>2</voice><type>16th</type><staff>2</staff></note>
      <note><pitch><step>C</step><octave>3</octave></pitch><duration>3</duration><voice>2</voice><type>16th</type><staff>2</staff></note>
      <note><pitch><step>F</step><octave>3</octave></pitch><duration>3</duration><voice>2</voice><type>16th</type><staff>2</staff></note>
      <note><pitch><step>A</step><octave>3</octave></pitch><duration>3</duration><voice>2</voice><type>16th</type><staff>2</staff></note>
      <note><pitch><step>F</step><octave>2</octave></pitch><duration>3</duration><voice>2</voice><type>16th</type><staff>2</staff></note>
      <note><pitch><step>C</step><octave>3</octave></pitch><duration>3</duration><voice>2</voice><type>16th</type><staff>2</staff></note>
      <note><pitch><step>F</step><octave>3</octave></pitch><duration>3</duration><voice>2</voice><type>16th</type><staff>2</staff></note>
      <note><pitch><step>A</step><octave>3</octave></pitch><duration>3</duration><voice>2</voice><type>16th</type><staff>2</staff></note>
    </measure>
    <measure number="5">
      <note><pitch><step>D</step><octave>5</octave></pitch><duration>24</duration><voice>1</voice><type>half</type><staff>1</staff></note>
      <note><pitch><step>C</step><octave>5</octave></pitch><duration>12</duration><voice>1</voice><type>quarter</type><staff>1</staff></note>
      <note><pitch><step>B</step><alter>-1</alter><octave>4</octave></pitch><duration>12</duration><voice>1</voice><type>quarter</type><staff>1</staff></note>
      <backup><duration>48</duration></backup>
      <note><pitch><step>B</step><alter>-1</alter><octave>2</octave></pitch><duration>3</duration><voice>2</voice><type>16th</type><staff>2</staff></note>
      <note><pitch><step>F</step><octave>3</octave></pitch><duration>3</duration><voice>2</voice><type>16th</type><staff>2</staff></note>
      <note><pitch><step>B</step><alter>-1</alter><octave>3</octave></pitch><duration>3</duration><voice>2</voice><type>16th</type><staff>2</staff></note>
      <note><pitch><step>D</step><octave>4</octave></pitch><duration>3</duration><voice>2</voice><type>16th</type><staff>2</staff></note>
      <note><pitch><step>B</step><alter>-1</alter><octave>2</octave></pitch><duration>3</duration><voice>2</voice><type>16th</type><staff>2</staff></note>
      <note><pitch><step>F</step><octave>3</octave></pitch><duration>3</duration><voice>2</voice><type>16th</type><staff>2</staff></note>
      <note><pitch><step>B</step><alter>-1</alter><octave>3</octave></pitch><duration>3</duration><voice>2</voice><type>16th</type><staff>2</staff></note>
      <note><pitch><step>D</step><octave>4</octave></pitch><duration>3</duration><voice>2</voice><type>16th</type><staff>2</staff></note>
      <note><pitch><step>B</step><alter>-1</alter><octave>2</octave></pitch><duration>3</duration><voice>2</voice><type>16th</type><staff>2</staff></note>
      <note><pitch><step>F</step><octave>3</octave></pitch><duration>3</duration><voice>2</voice><type>16th</type><staff>2</staff></note>
      <note><pitch><step>B</step><alter>-1</alter><octave>3</octave></pitch><duration>3</duration><voice>2</voice><type>16th</type><staff>2</staff></note>
      <note><pitch><step>D</step><octave>4</octave></pitch><duration>3</duration><voice>2</voice><type>16th</type><staff>2</staff></note>
      <note><pitch><step>B</step><alter>-1</alter><octave>2</octave></pitch><duration>3</duration><voice>2</voice><type>16th</type><staff>2</staff></note>
      <note><pitch><step>F</step><octave>3</octave></pitch><duration>3</duration><voice>2</voice><type>16th</type><staff>2</staff></note>
      <note><pitch><step>B</step><alter>-1</alter><octave>3</octave></pitch><duration>3</duration><voice>2</voice><type>16th</type><staff>2</staff></note>
      <note><pitch><step>D</step><octave>4</octave></pitch><duration>3</duration><voice>2</voice><type>16th</type><staff>2</staff></note>
    </measure>
    <measure number="6">
      <note><pitch><step>B</step><alter>-1</alter><octave>4</octave></pitch><duration>24</duration><voice>1</voice><type>half</type><staff>1</staff></note>
      <note><rest/><duration>24</duration><voice>1</voice><type>half</type><staff>1</staff></note>
      <backup><duration>48</duration></backup>
      <note><pitch><step>F</step><octave>2</octave></pitch><duration>3</duration><voice>2</voice><type>16th</type><staff>2</staff></note>
      <note><pitch><step>C</step><octave>3</octave></pitch><duration>3</duration><voice>2</voice><type>16th</type><staff>2</staff></note>
      <note><pitch><step>F</step><octave>3</octave></pitch><duration>3</duration><voice>2</voice><type>16th</type><staff>2</staff></note>
      <note><pitch><step>A</step><octave>3</octave></pitch><duration>3</duration><voice>2</voice><type>16th</type><staff>2</staff></note>
      <note><pitch><step>F</step><octave>2</octave></pitch><duration>3</duration><voice>2</voice><type>16th</type><staff>2</staff></note>
      <note><pitch><step>C</step><octave>3</octave></pitch><duration>3</duration><voice>2</voice><type>16th</type><staff>2</staff></note>
      <note><pitch><step>F</step><octave>3</octave></pitch><duration>3</duration><voice>2</voice><type>16th</type><staff>2</staff></note>
      <note><pitch><step>A</step><octave>3</octave></pitch><duration>3</duration><voice>2</voice><type>16th</type><staff>2</staff></note>
      <note><pitch><step>F</step><octave>2</octave></pitch><duration>3</duration><voice>2</voice><type>16th</type><staff>2</staff></note>
      <note><pitch><step>C</step><octave>3</octave></pitch><duration>3</duration><voice>2</voice><type>16th</type><staff>2</staff></note>
      <note><pitch><step>F</step><octave>3</octave></pitch><duration>3</duration><voice>2</voice><type>16th</type><staff>2</staff></note>
      <note><pitch><step>A</step><octave>3</octave></pitch><duration>3</duration><voice>2</voice><type>16th</type><staff>2</staff></note>
      <note><pitch><step>F</step><octave>2</octave></pitch><duration>3</duration><voice>2</voice><type>16th</type><staff>2</staff></note>
      <note><pitch><step>C</step><octave>3</octave></pitch><duration>3</duration><voice>2</voice><type>16th</type><staff>2</staff></note>
      <note><pitch><step>F</step><octave>3</octave></pitch><duration>3</duration><voice>2</voice><type>16th</type><staff>2</staff></note>
      <note><pitch><step>A</step><octave>3</octave></pitch><duration>3</duration><voice>2</voice><type>16th</type><staff>2</staff></note>
    </measure>
    <measure number="7">
      <note><pitch><step>F</step><octave>4</octave></pitch><duration>12</duration><voice>1</voice><type>quarter</type><staff>1</staff></note>
      <note><pitch><step>B</step><alter>-1</alter><octave>4</octave></pitch><duration>12</duration><voice>1</voice><type>quarter</type><staff>1</staff></note>
      <note><pitch><step>D</step><octave>5</octave></pitch><duration>12</duration><voice>1</voice><type>quarter</type><staff>1</staff></note>
      <note><pitch><step>F</step><octave>5</octave></pitch><duration>12</duration><voice>1</voice><type>quarter</type><staff>1</staff></note>
      <backup><duration>48</duration></backup>
      <note><pitch><step>B</step><alter>-1</alter><octave>2</octave></pitch><duration>3</duration><voice>2</voice><type>16th</type><staff>2</staff></note>
      <note><pitch><step>F</step><octave>3</octave></pitch><duration>3</duration><voice>2</voice><type>16th</type><staff>2</staff></note>
      <note><pitch><step>B</step><alter>-1</alter><octave>3</octave></pitch><duration>3</duration><voice>2</voice><type>16th</type><staff>2</staff></note>
      <note><pitch><step>D</step><octave>4</octave></pitch><duration>3</duration><voice>2</voice><type>16th</type><staff>2</staff></note>
      <note><pitch><step>B</step><alter>-1</alter><octave>2</octave></pitch><duration>3</duration><voice>2</voice><type>16th</type><staff>2</staff></note>
      <note><pitch><step>F</step><octave>3</octave></pitch><duration>3</duration><voice>2</voice><type>16th</type><staff>2</staff></note>
      <note><pitch><step>B</step><alter>-1</alter><octave>3</octave></pitch><duration>3</duration><voice>2</voice><type>16th</type><staff>2</staff></note>
      <note><pitch><step>D</step><octave>4</octave></pitch><duration>3</duration><voice>2</voice><type>16th</type><staff>2</staff></note>
      <note><pitch><step>B</step><alter>-1</alter><octave>2</octave></pitch><duration>3</duration><voice>2</voice><type>16th</type><staff>2</staff></note>
      <note><pitch><step>F</step><octave>3</octave></pitch><duration>3</duration><voice>2</voice><type>16th</type><staff>2</staff></note>
      <note><pitch><step>B</step><alter>-1</alter><octave>3</octave></pitch><duration>3</duration><voice>2</voice><type>16th</type><staff>2</staff></note>
      <note><pitch><step>D</step><octave>4</octave></pitch><duration>3</duration><voice>2</voice><type>16th</type><staff>2</staff></note>
      <note><pitch><step>B</step><alter>-1</alter><octave>2</octave></pitch><duration>3</duration><voice>2</voice><type>16th</type><staff>2</staff></note>
      <note><pitch><step>F</step><octave>3</octave></pitch><duration>3</duration><voice>2</voice><type>16th</type><staff>2</staff></note>
      <note><pitch><step>B</step><alter>-1</alter><octave>3</octave></pitch><duration>3</duration><voice>2</voice><type>16th</type><staff>2</staff></note>
      <note><pitch><step>D</step><octave>4</octave></pitch><duration>3</duration><voice>2</voice><type>16th</type><staff>2</staff></note>
    </measure>
    <measure number="8">
      <note><pitch><step>E</step><alter>-1</alter><octave>5</octave></pitch><duration>24</duration><voice>1</voice><type>half</type><staff>1</staff></note>
      <note><pitch><step>D</step><octave>5</octave></pitch><duration>24</duration><voice>1</voice><type>half</type><staff>1</staff></note>
      <backup><duration>48</duration></backup>
      <note><pitch><step>E</step><alter>-1</alter><octave>2</octave></pitch><duration>3</duration><voice>2</voice><type>16th</type><staff>2</staff></note>
      <note><pitch><step>B</step><alter>-1</alter><octave>2</octave></pitch><duration>3</duration><voice>2</voice><type>16th</type><staff>2</staff></note>
      <note><pitch><step>E</step><alter>-1</alter><octave>3</octave></pitch><duration>3</duration><voice>2</voice><type>16th</type><staff>2</staff></note>
      <note><pitch><step>G</step><octave>3</octave></pitch><duration>3</duration><voice>2</voice><type>16th</type><staff>2</staff></note>
      <note><pitch><step>E</step><alter>-1</alter><octave>2</octave></pitch><duration>3</duration><voice>2</voice><type>16th</type><staff>2</staff></note>
      <note><pitch><step>B</step><alter>-1</alter><octave>2</octave></pitch><duration>3</duration><voice>2</voice><type>16th</type><staff>2</staff></note>
      <note><pitch><step>E</step><alter>-1</alter><octave>3</octave></pitch><duration>3</duration><voice>2</voice><type>16th</type><staff>2</staff></note>
      <note><pitch><step>G</step><octave>3</octave></pitch><duration>3</duration><voice>2</voice><type>16th</type><staff>2</staff></note>
      <note><pitch><step>E</step><alter>-1</alter><octave>2</octave></pitch><duration>3</duration><voice>2</voice><type>16th</type><staff>2</staff></note>
      <note><pitch><step>B</step><alter>-1</alter><octave>2</octave></pitch><duration>3</duration><voice>2</voice><type>16th</type><staff>2</staff></note>
      <note><pitch><step>E</step><alter>-1</alter><octave>3</octave></pitch><duration>3</duration><voice>2</voice><type>16th</type><staff>2</staff></note>
      <note><pitch><step>G</step><octave>3</octave></pitch><duration>3</duration><voice>2</voice><type>16th</type><staff>2</staff></note>
      <note><pitch><step>E</step><alter>-1</alter><octave>2</octave></pitch><duration>3</duration><voice>2</voice><type>16th</type><staff>2</staff></note>
      <note><pitch><step>B</step><alter>-1</alter><octave>2</octave></pitch><duration>3</duration><voice>2</voice><type>16th</type><staff>2</staff></note>
      <note><pitch><step>E</step><alter>-1</alter><octave>3</octave></pitch><duration>3</duration><voice>2</voice><type>16th</type><staff>2</staff></note>
      <note><pitch><step>G</step><octave>3</octave></pitch><duration>3</duration><voice>2</voice><type>16th</type><staff>2</staff></note>
    </measure>
    <measure number="9">
      <note><pitch><step>C</step><octave>5</octave></pitch><duration>12</duration><voice>1</voice><type>quarter</type><staff>1</staff></note>
      <note><pitch><step>D</step><octave>5</octave></pitch><duration>12</duration><voice>1</voice><type>quarter</type><staff>1</staff></note>
      <note><pitch><step>E</step><alter>-1</alter><octave>5</octave></pitch><duration>12</duration><voice>1</voice><type>quarter</type><staff>1</staff></note>
      <note><pitch><step>C</step><octave>5</octave></pitch><duration>12</duration><voice>1</voice><type>quarter</type><staff>1</staff></note>
      <backup><duration>48</duration></backup>
      <note><pitch><step>C</step><octave>3</octave></pitch><duration>3</duration><voice>2</voice><type>16th</type><staff>2</staff></note>
      <note><pitch><step>G</step><octave>3</octave></pitch><duration>3</duration><voice>2</voice><type>16th</type><staff>2</staff></note>
      <note><pitch><step>C</step><octave>4</octave></pitch><duration>3</duration><voice>2</voice><type>16th</type><staff>2</staff></note>
      <note><pitch><step>E</step><alter>-1</alter><octave>4</octave></pitch><duration>3</duration><voice>2</voice><type>16th</type><staff>2</staff></note>
      <note><pitch><step>C</step><octave>3</octave></pitch><duration>3</duration><voice>2</voice><type>16th</type><staff>2</staff></note>
      <note><pitch><step>G</step><octave>3</octave></pitch><duration>3</duration><voice>2</voice><type>16th</type><staff>2</staff></note>
      <note><pitch><step>C</step><octave>4</octave></pitch><duration>3</duration><voice>2</voice><type>16th</type><staff>2</staff></note>
      <note><pitch><step>E</step><alter>-1</alter><octave>4</octave></pitch><duration>3</duration><voice>2</voice><type>16th</type><staff>2</staff></note>
      <note><pitch><step>C</step><octave>3</octave></pitch><duration>3</duration><voice>2</voice><type>16th</type><staff>2</staff></note>
      <note><pitch><step>G</step><octave>3</octave></pitch><duration>3</duration><voice>2</voice><type>16th</type><staff>2</staff></note>
      <note><pitch><step>C</step><octave>4</octave></pitch><duration>3</duration><voice>2</voice><type>16th</type><staff>2</staff></note>
      <note><pitch><step>E</step><alter>-1</alter><octave>4</octave></pitch><duration>3</duration><voice>2</voice><type>16th</type><staff>2</staff></note>
      <note><pitch><step>C</step><octave>3</octave></pitch><duration>3</duration><voice>2</voice><type>16th</type><staff>2</staff></note>
      <note><pitch><step>G</step><octave>3</octave></pitch><duration>3</duration><voice>2</voice><type>16th</type><staff>2</staff></note>
      <note><pitch><step>C</step><octave>4</octave></pitch><duration>3</duration><voice>2</voice><type>16th</type><staff>2</staff></note>
      <note><pitch><step>E</step><alter>-1</alter><octave>4</octave></pitch><duration>3</duration><voice>2</voice><type>16th</type><staff>2</staff></note>
    </measure>
    <measure number="10">
      <note><pitch><step>B</step><alter>-1</alter><octave>4</octave></pitch><duration>24</duration><voice>1</voice><type>half</type><staff>1</staff></note>
      <note><pitch><step>A</step><octave>4</octave></pitch><duration>12</duration><voice>1</voice><type>quarter</type><staff>1</staff></note>
      <note><pitch><step>B</step><alter>-1</alter><octave>4</octave></pitch><duration>12</duration><voice>1</voice><type>quarter</type><staff>1</staff></note>
      <backup><duration>48</duration></backup>
      <note><pitch><step>F</step><octave>2</octave></pitch><duration>3</duration><voice>2</voice><type>16th</type><staff>2</staff></note>
      <note><pitch><step>C</step><octave>3</octave></pitch><duration>3</duration><voice>2</voice><type>16th</type><staff>2</staff></note>
      <note><pitch><step>F</step><octave>3</octave></pitch><duration>3</duration><voice>2</voice><type>16th</type><staff>2</staff></note>
      <note><pitch><step>A</step><octave>3</octave></pitch><duration>3</duration><voice>2</voice><type>16th</type><staff>2</staff></note>
      <note><pitch><step>F</step><octave>2</octave></pitch><duration>3</duration><voice>2</voice><type>16th</type><staff>2</staff></note>
      <note><pitch><step>C</step><octave>3</octave></pitch><duration>3</duration><voice>2</voice><type>16th</type><staff>2</staff></note>
      <note><pitch><step>F</step><octave>3</octave></pitch><duration>3</duration><voice>2</voice><type>16th</type><staff>2</staff></note>
      <note><pitch><step>A</step><octave>3</octave></pitch><duration>3</duration><voice>2</voice><type>16th</type><staff>2</staff></note>
      <note><pitch><step>F</step><octave>2</octave></pitch><duration>3</duration><voice>2</voice><type>16th</type><staff>2</staff></note>
      <note><pitch><step>C</step><octave>3</octave></pitch><duration>3</duration><voice>2</voice><type>16th</type><staff>2</staff></note>
      <note><pitch><step>F</step><octave>3</octave></pitch><duration>3</duration><voice>2</voice><type>16th</type><staff>2</staff></note>
      <note><pitch><step>A</step><octave>3</octave></pitch><duration>3</duration><voice>2</voice><type>16th</type><staff>2</staff></note>
      <note><pitch><step>F</step><octave>2</octave></pitch><duration>3</duration><voice>2</voice><type>16th</type><staff>2</staff></note>
      <note><pitch><step>C</step><octave>3</octave></pitch><duration>3</duration><voice>2</voice><type>16th</type><staff>2</staff></note>
      <note><pitch><step>F</step><octave>3</octave></pitch><duration>3</duration><voice>2</voice><type>16th</type><staff>2</staff></note>
      <note><pitch><step>A</step><octave>3</octave></pitch><duration>3</duration><voice>2</voice><type>16th</type><staff>2</staff></note>
    </measure>
    <measure number="11">
      <note><pitch><step>C</step><octave>5</octave></pitch><duration>24</duration><voice>1</voice><type>half</type><staff>1</staff></note>
      <note><pitch><step>B</step><alter>-1</alter><octave>4</octave></pitch><duration>24</duration><voice>1</voice><type>half</type><staff>1</staff></note>
      <backup><duration>48</duration></backup>
      <note><pitch><step>B</step><alter>-1</alter><octave>2</octave></pitch><duration>3</duration><voice>2</voice><type>16th</type><staff>2</staff></note>
      <note><pitch><step>F</step><octave>3</octave></pitch><duration>3</duration><voice>2</voice><type>16th</type><staff>2</staff></note>
      <note><pitch><step>B</step><alter>-1</alter><octave>3</octave></pitch><duration>3</duration><voice>2</voice><type>16th</type><staff>2</staff></note>
      <note><pitch><step>D</step><octave>4</octave></pitch><duration>3</duration><voice>2</voice><type>16th</type><staff>2</staff></note>
      <note><pitch><step>B</step><alter>-1</alter><octave>2</octave></pitch><duration>3</duration><voice>2</voice><type>16th</type><staff>2</staff></note>
      <note><pitch><step>F</step><octave>3</octave></pitch><duration>3</duration><voice>2</voice><type>16th</type><staff>2</staff></note>
      <note><pitch><step>B</step><alter>-1</alter><octave>3</octave></pitch><duration>3</duration><voice>2</voice><type>16th</type><staff>2</staff></note>
      <note><pitch><step>D</step><octave>4</octave></pitch><duration>3</duration><voice>2</voice><type>16th</type><staff>2</staff></note>
      <note><pitch><step>B</step><alter>-1</alter><octave>2</octave></pitch><duration>3</duration><voice>2</voice><type>16th</type><staff>2</staff></note>
      <note><pitch><step>F</step><octave>3</octave></pitch><duration>3</duration><voice>2</voice><type>16th</type><staff>2</staff></note>
      <note><pitch><step>B</step><alter>-1</alter><octave>3</octave></pitch><duration>3</duration><voice>2</voice><type>16th</type><staff>2</staff></note>
      <note><pitch><step>D</step><octave>4</octave></pitch><duration>3</duration><voice>2</voice><type>16th</type><staff>2</staff></note>
      <note><pitch><step>B</step><alter>-1</alter><octave>2</octave></pitch><duration>3</duration><voice>2</voice><type>16th</type><staff>2</staff></note>
      <note><pitch><step>F</step><octave>3</octave></pitch><duration>3</duration><voice>2</voice><type>16th</type><staff>2</staff></note>
      <note><pitch><step>B</step><alter>-1</alter><octave>3</octave></pitch><duration>3</duration><voice>2</voice><type>16th</type><staff>2</staff></note>
      <note><pitch><step>D</step><octave>4</octave></pitch><duration>3</duration><voice>2</voice><type>16th</type><staff>2</staff></note>
    </measure>
    <measure number="12">
      <note><pitch><step>B</step><alter>-1</alter><octave>4</octave></pitch><duration>48</duration><voice>1</voice><type>whole</type><staff>1</staff></note>
      <backup><duration>48</duration></backup>
      <note><pitch><step>B</step><alter>-1</alter><octave>2</octave></pitch><duration>3</duration><voice>2</voice><type>16th</type><staff>2</staff></note>
      <note><pitch><step>F</step><octave>3</octave></pitch><duration>3</duration><voice>2</voice><type>16th</type><staff>2</staff></note>
      <note><pitch><step>B</step><alter>-1</alter><octave>3</octave></pitch><duration>3</duration><voice>2</voice><type>16th</type><staff>2</staff></note>
      <note><pitch><step>D</step><octave>4</octave></pitch><duration>3</duration><voice>2</voice><type>16th</type><staff>2</staff></note>
      <note><pitch><step>B</step><alter>-1</alter><octave>2</octave></pitch><duration>3</duration><voice>2</voice><type>16th</type><staff>2</staff></note>
      <note><pitch><step>F</step><octave>3</octave></pitch><duration>3</duration><voice>2</voice><type>16th</type><staff>2</staff></note>
      <note><pitch><step>B</step><alter>-1</alter><octave>3</octave></pitch><duration>3</duration><voice>2</voice><type>16th</type><staff>2</staff></note>
      <note><pitch><step>D</step><octave>4</octave></pitch><duration>3</duration><voice>2</voice><type>16th</type><staff>2</staff></note>
      <note><pitch><step>B</step><alter>-1</alter><octave>2</octave></pitch><duration>3</duration><voice>2</voice><type>16th</type><staff>2</staff></note>
      <note><pitch><step>F</step><octave>3</octave></pitch><duration>3</duration><voice>2</voice><type>16th</type><staff>2</staff></note>
      <note><pitch><step>B</step><alter>-1</alter><octave>3</octave></pitch><duration>3</duration><voice>2</voice><type>16th</type><staff>2</staff></note>
      <note><pitch><step>D</step><octave>4</octave></pitch><duration>3</duration><voice>2</voice><type>16th</type><staff>2</staff></note>
      <note><pitch><step>B</step><alter>-1</alter><octave>2</octave></pitch><duration>3</duration><voice>2</voice><type>16th</type><staff>2</staff></note>
      <note><pitch><step>F</step><octave>3</octave></pitch><duration>3</duration><voice>2</voice><type>16th</type><staff>2</staff></note>
      <note><pitch><step>B</step><alter>-1</alter><octave>3</octave></pitch><duration>3</duration><voice>2</voice><type>16th</type><staff>2</staff></note>
      <note><pitch><step>D</step><octave>4</octave></pitch><duration>3</duration><voice>2</voice><type>16th</type><staff>2</staff></note>
    </measure>
  </part>
</score-partwise>
