<svg xmlns="http://www.w3.org/2000/svg" viewBox="0 0 100 100" width="1024" height="1024">
  <rect width="100" height="100" fill="#17130f"/>
  <path d="M25 48 Q25 15 50 13 Q75 15 75 48 L75 80 L25 80 Z" fill="#241d17" stroke="#3a2f22" stroke-width="1"/>
  <rect x="27" y="46" width="4" height="32" rx="2" fill="#e6c877"/>
  <rect x="69" y="46" width="4" height="32" rx="2" fill="#e6c877"/>
  <path d="M25 48 Q25 15 50 13 Q75 15 75 48" fill="none" stroke="#e6c877" stroke-width="1.6"/>
  <path d="M31 46 Q31 22 50 20 Q69 22 69 46" fill="none" stroke="#c9a552" stroke-width="0.9" opacity="0.7"/>
  <circle cx="50" cy="14" r="2" fill="#e6c877"/>
  <path d="M35 58 L35 42 Q35 26 50 25 Q65 26 65 42 L65 58 Z" fill="#f4f0e6" stroke="#e6c877" stroke-width="1.2"/>
  <rect x="33" y="63" width="34" height="10" rx="2" fill="#0f0c09"/>
  <g fill="#e6c877"><circle cx="40" cy="68" r="1.6"/><circle cx="47" cy="68" r="1.6"/><circle cx="54" cy="68" r="1.6"/><circle cx="61" cy="68" r="1.6"/></g>
  <rect x="45" y="31" width="15" height="23" rx="1" fill="#efe7d3" stroke="#cdbb92" stroke-width="0.7" transform="rotate(5 52 43)"/>
  <rect x="43" y="30" width="15" height="23" rx="1" fill="#f6efdc" stroke="#cdbb92" stroke-width="0.7" transform="rotate(-2 52 43)"/>
  <rect x="42" y="29" width="15" height="23" rx="1" fill="#fffdf8" stroke="#c9b78e" stroke-width="0.8"/>
  <g stroke="#8a7a5c" stroke-width="0.6"><line x1="45" y1="35" x2="54" y2="35"/><line x1="45" y1="38" x2="54" y2="38"/><line x1="45" y1="41" x2="54" y2="41"/></g>
  <ellipse cx="47" cy="41" rx="1.6" ry="1.3" fill="#7a2e28"/>
  <line x1="48.4" y1="40.5" x2="48.4" y2="35" stroke="#7a2e28" stroke-width="0.9" stroke-linecap="round"/>
</svg>
